<svg width="18" height="18" viewBox="0 0 18 18" fill="none"
    xmlns="http://www.w3.org/2000/svg">
    <path d="M16.4884 8.04236L13.3173 10.8099L14.2672 14.9302C14.3175 15.1456 14.3031 15.371 14.226 15.5783C14.1488 15.7856 14.0123 15.9655 13.8334 16.0956C13.6545 16.2257 13.4413 16.3002 13.2203 16.3098C12.9993 16.3193 12.7804 16.2636 12.591 16.1494L8.9973 13.9697L5.41136 16.1494C5.22192 16.2636 5.00303 16.3193 4.78205 16.3098C4.56107 16.3002 4.34781 16.2257 4.16894 16.0956C3.99006 15.9655 3.85351 15.7856 3.77635 15.5783C3.69919 15.371 3.68485 15.1456 3.73511 14.9302L4.68363 10.8141L1.51183 8.04236C1.34407 7.89767 1.22276 7.70667 1.16312 7.49332C1.10348 7.27996 1.10815 7.05375 1.17656 6.84304C1.24497 6.63233 1.37407 6.44651 1.54766 6.30888C1.72126 6.17125 1.93162 6.08794 2.15238 6.06939L6.33316 5.70728L7.96511 1.81478C8.05034 1.61053 8.19409 1.43607 8.37826 1.31335C8.56243 1.19063 8.7788 1.12515 9.00011 1.12515C9.22143 1.12515 9.43779 1.19063 9.62197 1.31335C9.80614 1.43607 9.94989 1.61053 10.0351 1.81478L11.672 5.70728L15.8514 6.06939C16.0721 6.08794 16.2825 6.17125 16.4561 6.30888C16.6297 6.44651 16.7588 6.63233 16.8272 6.84304C16.8956 7.05375 16.9003 7.27996 16.8406 7.49332C16.781 7.70667 16.6597 7.89767 16.4919 8.04236H16.4884Z" fill="#FFB800"/>
</svg>
