<svg width="20" height="20" viewBox="0 0 20 20" fill="none"
    xmlns="http://www.w3.org/2000/svg">
    <path d="M10 -3.05176e-05C15.523 -3.05176e-05 20 4.47697 20 9.99997C20 15.523 15.523 20 10 20C8.17818 20.0028 6.39054 19.5054 4.83201 18.562L1.80001 19.454C1.62593 19.5052 1.44126 19.5086 1.26543 19.4637C1.08959 19.4189 0.92908 19.3275 0.800768 19.1992C0.672456 19.0709 0.581083 18.9104 0.536253 18.7345C0.491423 18.5587 0.494793 18.3741 0.546009 18.2L1.43801 15.168C0.494967 13.6093 -0.00241404 11.8217 8.80954e-06 9.99997C8.80954e-06 4.47697 4.47701 -3.05176e-05 10 -3.05176e-05ZM10 1.99997C8.56764 1.99971 7.16146 2.38403 5.92834 3.11278C4.69521 3.84154 3.68036 4.88801 2.98977 6.14291C2.29918 7.39781 1.95817 8.81511 2.00237 10.2468C2.04656 11.6785 2.47433 13.0721 3.24101 14.282C3.46801 14.639 3.54601 15.089 3.41801 15.522L2.97701 17.023L4.47801 16.582C4.91101 16.454 5.36101 16.532 5.71801 16.759C6.76634 17.4228 7.9547 17.8336 9.18915 17.959C10.4236 18.0844 11.6703 17.921 12.8307 17.4816C13.9911 17.0422 15.0334 16.3389 15.8752 15.4273C16.717 14.5156 17.3351 13.4207 17.6809 12.2291C18.0266 11.0374 18.0904 9.78165 17.8673 8.56107C17.6441 7.3405 17.14 6.18857 16.395 5.19635C15.65 4.20412 14.6843 3.3988 13.5744 2.84405C12.4645 2.2893 11.2408 2.00032 10 1.99997ZM6.50001 8.49997C6.89783 8.49997 7.27936 8.658 7.56067 8.93931C7.84197 9.22061 8.00001 9.60214 8.00001 9.99997C8.00001 10.3978 7.84197 10.7793 7.56067 11.0606C7.27936 11.3419 6.89783 11.5 6.50001 11.5C6.10218 11.5 5.72065 11.3419 5.43935 11.0606C5.15804 10.7793 5.00001 10.3978 5.00001 9.99997C5.00001 9.60214 5.15804 9.22061 5.43935 8.93931C5.72065 8.658 6.10218 8.49997 6.50001 8.49997ZM13.5 8.49997C13.8978 8.49997 14.2794 8.658 14.5607 8.93931C14.842 9.22061 15 9.60214 15 9.99997C15 10.3978 14.842 10.7793 14.5607 11.0606C14.2794 11.3419 13.8978 11.5 13.5 11.5C13.1022 11.5 12.7207 11.3419 12.4393 11.0606C12.158 10.7793 12 10.3978 12 9.99997C12 9.60214 12.158 9.22061 12.4393 8.93931C12.7207 8.658 13.1022 8.49997 13.5 8.49997Z" fill="#1F3E97"/>
</svg>
